<svg xmlns="http://www.w3.org/2000/svg" width="20" height="20" viewBox="0 0 320 320">
    <path fill-rule="evenodd" d="M264 65.008V32h-16v33.008C234.198 68.56 224 81.088 224 96c0 14.91 10.198 27.44 24 30.992V288h16V126.992c13.802-3.552 24-16.08 24-30.992 0-14.91-10.198-27.44-24-30.992zm-96 128V32h-16v161.008c-13.802 3.552-24 16.08-24 30.992 0 14.91 10.198 27.44 24 30.992V288h16v-33.008c13.802-3.552 24-16.08 24-30.992 0-14.91-10.198-27.44-24-30.992zm-96-128V32H56v33.008C42.198 68.56 32 81.088 32 96c0 14.91 10.198 27.44 24 30.992V288h16V126.992C85.802 123.44 96 110.912 96 96c0-14.91-10.198-27.44-24-30.992zM64 112c8.837 0 16-7.163 16-16s-7.163-16-16-16-16 7.163-16 16 7.163 16 16 16zm96 128c8.837 0 16-7.163 16-16s-7.163-16-16-16-16 7.163-16 16 7.163 16 16 16zm96-128c8.837 0 16-7.163 16-16s-7.163-16-16-16-16 7.163-16 16 7.163 16 16 16z"/>
</svg>
