<svg height="579.00958" viewBox="0 0 821.67627 579.00958" width="821.67627" xmlns="http://www.w3.org/2000/svg"><g transform="translate(-189.16186 -160.49521)"><path d="m371.238 218.49521h-52.3999a19.01722 19.01722 0 0 0 -19 19v56.81c-.66992-.04-1.33985-.1-2-.18a66.99888 66.99888 0 1 1 73.10009-77.63c.10991.65997.21001 1.33002.29981 2z" fill="#f2f2f2"/><path d="m989.83814 216.49521h-671a21.023 21.023 0 0 0 -21 21v354a21.023 21.023 0 0 0 21 21h671a21.023 21.023 0 0 0 21-21v-354a21.023 21.023 0 0 0 -21-21zm19 375a19.01722 19.01722 0 0 1 -19 19h-671a19.01722 19.01722 0 0 1 -19-19v-354a19.01722 19.01722 0 0 1 19-19h671a19.01722 19.01722 0 0 1 19 19z" fill="#3f3d56"/><path d="m956.83814 273.86484h-605a1 1 0 0 1 0-2h605a1 1 0 0 1 0 2z" fill="#3f3d56"/><path d="m522.83814 569.49521a1 1 0 0 1 -1-1v-329a1 1 0 1 1 2 0v329a1.00005 1.00005 0 0 1 -1 1z" fill="#3f3d56"/><path d="m673.83814 569.49521a1 1 0 0 1 -1-1v-329a1 1 0 1 1 2 0v329a1.00005 1.00005 0 0 1 -1 1z" fill="#3f3d56"/><path d="m824.83814 569.49521a1 1 0 0 1 -1-1v-329a1 1 0 1 1 2 0v329a1.00005 1.00005 0 0 1 -1 1z" fill="#3f3d56"/><path d="m425.75379 377.08261h-36.54a4.505 4.505 0 0 1 -4.5-4.5v-43.11961a4.505 4.505 0 0 1 4.5-4.5h36.54a4.505 4.505 0 0 1 4.5 4.5v43.11963a4.505 4.505 0 0 1 -4.5 4.49998z" fill="#4fd1c5"/><path d="m477.75379 500.08261h-36.54a4.505 4.505 0 0 1 -4.5-4.5v-43.11961a4.505 4.505 0 0 1 4.5-4.5h36.54a4.505 4.505 0 0 1 4.5 4.5v43.11963a4.505 4.505 0 0 1 -4.5 4.49998z" fill="#4fd1c5"/><path d="m595.75391 403.08261h-36.54a4.50508 4.50508 0 0 1 -4.5-4.5v-43.11961a4.50508 4.50508 0 0 1 4.5-4.5h36.54a4.50508 4.50508 0 0 1 4.5 4.5v43.11963a4.50508 4.50508 0 0 1 -4.5 4.49998z" fill="#4fd1c5"/><path d="m748.75391 356.08261h-36.54a4.50508 4.50508 0 0 1 -4.5-4.5v-43.11961a4.50508 4.50508 0 0 1 4.5-4.5h36.54a4.50508 4.50508 0 0 1 4.5 4.5v43.11963a4.50508 4.50508 0 0 1 -4.5 4.49998z" fill="#4fd1c5"/><path d="m889.75391 356.08261h-36.54a4.50508 4.50508 0 0 1 -4.5-4.5v-43.11961a4.50508 4.50508 0 0 1 4.5-4.5h36.54a4.50508 4.50508 0 0 1 4.5 4.5v43.11963a4.50508 4.50508 0 0 1 -4.5 4.49998z" fill="#4fd1c5"/><path d="m954.75391 368.08261h-36.54a4.50508 4.50508 0 0 1 -4.5-4.5v-43.11961a4.50508 4.50508 0 0 1 4.5-4.5h36.54a4.50508 4.50508 0 0 1 4.5 4.5v43.11963a4.50508 4.50508 0 0 1 -4.5 4.49998z" fill="#e6e6e6"/><path d="m925.75391 445.08261h-36.54a4.50508 4.50508 0 0 1 -4.5-4.5v-43.11961a4.50508 4.50508 0 0 1 4.5-4.5h36.54a4.50508 4.50508 0 0 1 4.5 4.5v43.11963a4.50508 4.50508 0 0 1 -4.5 4.49998z" fill="#e6e6e6"/><path d="m801.75391 429.08261h-36.54a4.50508 4.50508 0 0 1 -4.5-4.5v-43.11961a4.50508 4.50508 0 0 1 4.5-4.5h36.54a4.50508 4.50508 0 0 1 4.5 4.5v43.11963a4.50508 4.50508 0 0 1 -4.5 4.49998z" fill="#ff6584"/><path d="m730.75391 445.08261h-36.54a4.50508 4.50508 0 0 1 -4.5-4.5v-43.11961a4.50508 4.50508 0 0 1 4.5-4.5h36.54a4.50508 4.50508 0 0 1 4.5 4.5v43.11963a4.50508 4.50508 0 0 1 -4.5 4.49998z" fill="#e6e6e6"/><path d="m577.75391 513.08261h-36.54a4.50508 4.50508 0 0 1 -4.5-4.5v-43.11961a4.50508 4.50508 0 0 1 4.5-4.5h36.54a4.50508 4.50508 0 0 1 4.5 4.5v43.11963a4.50508 4.50508 0 0 1 -4.5 4.49998z" fill="#e6e6e6"/><path d="m392.75379 456.08261h-36.54a4.505 4.505 0 0 1 -4.5-4.5v-43.11961a4.505 4.505 0 0 1 4.5-4.5h36.54a4.505 4.505 0 0 1 4.5 4.5v43.11963a4.505 4.505 0 0 1 -4.5 4.49998z" fill="#ff6584"/><path d="m495.75379 377.08261h-36.54a4.505 4.505 0 0 1 -4.5-4.5v-43.11961a4.505 4.505 0 0 1 4.5-4.5h36.54a4.505 4.505 0 0 1 4.5 4.5v43.11963a4.505 4.505 0 0 1 -4.5 4.49998z" fill="#e6e6e6"/><path d="m465.83814 257.49521h-57a4 4 0 0 1 0-8h57a4 4 0 0 1 0 8z" fill="#ccc"/><path d="m626.83814 257.49521h-57a4 4 0 0 1 0-8h57a4 4 0 0 1 0 8z" fill="#ccc"/><path d="m777.83814 257.49521h-57a4 4 0 0 1 0-8h57a4 4 0 0 1 0 8z" fill="#ccc"/><path d="m918.83814 257.49521h-57a4 4 0 0 1 0-8h57a4 4 0 0 1 0 8z" fill="#ccc"/><path d="m338.17107 550.38656a10.05577 10.05577 0 0 1 -8.70007-12.73046l-25.63286-23.8611 13.55277-3.43814 25.20573 20.44382a10.11027 10.11027 0 0 1 -4.42557 19.58585z" fill="#ffb8b8"/></g><path d="m184.404 566.253h12.26l5.832-47.288h-18.094z" fill="#ffb8b8"/><path d="m370.93892 723.24476h38.53073a0 0 0 0 1 0 0v14.88687a0 0 0 0 1 0 0h-23.64388a14.88686 14.88686 0 0 1 -14.88686-14.88686 0 0 0 0 1 .00001-.00001z" fill="#2f2e41" transform="matrix(-1 .00004573 -.00004573 -1 591.28005 1300.86337)"/><path d="m100.345 557.401 11.848 3.154 17.801-44.196-17.485-4.654z" fill="#ffb8b8"/><path d="m285.30672 718.54064h38.53073a0 0 0 0 1 0 0v14.88687a0 0 0 0 1 0 0h-23.64387a14.88686 14.88686 0 0 1 -14.88686-14.88686 0 0 0 0 1 0-.00001z" fill="#2f2e41" transform="matrix(-.96635 -.25722 .25722 -.96635 222.9961 1345.38778)"/><path d="m389.12281 717.795h-18.70728a4.72981 4.72981 0 0 1 -4.72607-4.293l-11.35646-117.9316a3.74767 3.74767 0 0 0 -7.321-.71484l-32.97342 110.19922a4.74216 4.74216 0 0 1 -5.7 3.24609l-17.40308-4.35156a4.74747 4.74747 0 0 1 -3.44727-5.78711c.28418-1.11035 28.41065-111.02832 28.65625-112.1582 6.37281-46.96778 13.99707-59.55371 18.093-66.31445.33911-.55958.65064-1.07422.93115-1.56055.35108-.6084 2.51245-6.64453 3.88355-10.56445a4.79 4.79 0 0 1 2.43506-2.97754c17.21069-8.80176 37.34741-2.709 43.10913-.63184a4.6821 4.6821 0 0 1 2.33813 1.81543c17.28467 26.07129 8.80225 177.49121 6.92627 207.581a4.75127 4.75127 0 0 1 -4.73796 4.4434z" fill="#2f2e41" transform="translate(-189.16186 -160.49521)"/><circle cx="151.68415" cy="234.02423" fill="#ffb8b8" r="24.56103"/><path d="m338.24365 512.3331-.17651-.1709c-.33105-.32031-33.05566-32.37988-28.82056-62.02441 1.81128-12.67969 12.07032-20.78125 29.66773-23.43067a27.13473 27.13473 0 0 1 29.99976 19.1211l17.3999 59.48437z" fill="#ccc" transform="translate(-189.16186 -160.49521)"/><path d="m321.49463 535.13583-23.31836-23.17089a13.13671 13.13671 0 0 1 -3.47973-12.39161l11.28857-45.91894a10.35411 10.35411 0 0 1 13.17989-7.40039 10.41072 10.41072 0 0 1 6.80908 12.79394l-11.88448 40.39649 19.21826 20.63672z" fill="#ccc" transform="translate(-189.16186 -160.49521)"/><path d="m446.56619 456.05763a10.05577 10.05577 0 0 1 -14.88374 4.02868l-31.12945 16.13447 1.37589-13.70578 27.59693-17.07886a10.11028 10.11028 0 0 1 17.04041 10.62149z" fill="#ffb8b8" transform="translate(-189.16186 -160.49521)"/><path d="m428.283 466.25982-30.34625 13.11355a12.80885 12.80885 0 0 1 -12.477-1.33846l-38.58893-27.64906a10.355 10.355 0 0 1 -1.97354-14.98585 10.41025 10.41025 0 0 1 14.40861-1.568l33.08845 26.042 26.30022-10.17517z" fill="#ccc" transform="translate(-189.16186 -160.49521)"/><path d="m344.91778 402.38974c3.03-3.79642 8.69082-4.00051 12.85285-6.50478 5.45181-3.28033 7.70574-10.61077 5.94888-16.726s-6.93808-10.881-12.8784-13.16029-12.5494-2.30748-18.81589-1.20568c-9.33021 1.64048-18.51612 5.99512-24.20655 13.56895s-7.13858 18.66583-1.98149 26.61243c2.37026 3.65236 6.02921 6.66714 6.97549 10.91712 1.2423 5.57954-2.6714 10.96083-6.86421 14.846-4.77673 4.42628-10.257 8.1334-14.44192 13.12294s-6.97564 11.80621-5.066 18.03215c1.6 5.21635 6.25591 9.05948 11.36143 10.98408s10.66607 2.2027 16.12124 2.30939c5.29718.10361 10.92363-.02522 15.386-2.88141 4.77715-3.05764 7.32781-8.8583 7.51626-14.52705s-1.70587-11.22252-4.24464-16.2945c-1.51323-3.02314-3.27267-5.95256-4.27818-9.18027s-1.1797-6.89016.43058-9.86274c1.69267-3.12465 5.1171-5.009 8.6041-5.69419.18117-.0356.37286-.06739.57335-.0957a7.39847 7.39847 0 0 0 6.33328-8.62766c-.39726-2.21434-.36296-4.33384.67382-5.63279z" fill="#2f2e41" transform="translate(-189.16186 -160.49521)"/><path d="m483.229 567.3h-12.26l-5.832-47.288 18.094.001z" fill="#a0616a"/><path d="m462.212 563.79684h23.64386a0 0 0 0 1 0 0v14.88687a0 0 0 0 1 0 0h-38.53077a0 0 0 0 1 0 0 14.88687 14.88687 0 0 1 14.88691-14.88687z" fill="#2f2e41"/><path d="m572.184 553.413-11.151 5.093-24.954-40.589 16.459-7.518z" fill="#a0616a"/><path d="m743.47033 716.96167h23.64388a0 0 0 0 1 0 0v14.88687a0 0 0 0 1 0 0h-38.53073a0 0 0 0 1 0 0 14.88685 14.88685 0 0 1 14.88685-14.88687z" fill="#2f2e41" transform="matrix(.90960955 -.41546416 .41546416 .90960955 -422.52781 215.68843)"/><path d="m725.64338 568.3522a10.05579 10.05579 0 0 0 .80112-15.39851l14.4116-32.69992-18.30864 3.10281-10.87858 30.57671a10.11028 10.11028 0 0 0 13.9745 14.41891z" fill="#a0616a" transform="translate(-189.16186 -160.49521)"/><path d="m671.6094 715.32658h-11.71192a4.51686 4.51686 0 0 1 -4.48828-4.17383l-6.387-170.5586a4.49977 4.49977 0 0 1 4.92529-4.80468l67.73487 7.19336a4.5013 4.5013 0 0 1 4.06225 4.39355l1.41943 75.23535a3.49205 3.49205 0 0 0 .23389 1.19336l27.78516 72.05274a4.49892 4.49892 0 0 1 -2.64307 5.84082l-11.86841 4.373a4.50108 4.50108 0 0 1 -5.55737-2.16406l-34.13257-66.36914a4.475 4.475 0 0 1 -.4043-1.14258l-5.83081-28.09375a3.49992 3.49992 0 0 0 -6.904.3125l-11.76222 102.72367a4.499 4.499 0 0 1 -4.47094 3.98829z" fill="#2f2e41" transform="translate(-189.16186 -160.49521)"/><circle cx="488.27943" cy="222.17782" fill="#a0616a" r="24.56103"/><path d="m694.28491 556.18955a87.66432 87.66432 0 0 1 -46.8728-14.19825l-.239-.165.02466-.28955 9.395-109.416a15.4205 15.4205 0 0 1 14.59887-14.06153c12.176-.55957 28.531.146 37.28589 6.66651 13.23071 9.85449 19.60767 24.69385 17.49561 40.7124-4.38013 33.21875.58178 78.0293 1.16186 83.0293l.042.36035-.32959.15137a77.26611 77.26611 0 0 1 -32.5625 7.2104z" fill="#4fd1c5" transform="translate(-189.16186 -160.49521)"/><path d="m727.02173 548.65292a5.007 5.007 0 0 1 -3.68066-1.62207l-5.37256-5.86132a5.02581 5.02581 0 0 1 -1.10913-4.79493l12.25073-41.46386-18.63989-39.14356a8.8323 8.8323 0 0 1 -.60376-5.87939 8.809 8.809 0 0 1 16.31323-2.084l25.29468 41.042a11.95092 11.95092 0 0 1 .72 11.19824l-20.60986 45.665a4.98754 4.98754 0 0 1 -3.76636 2.87988 5.05373 5.05373 0 0 1 -.79642.06401z" fill="#4fd1c5" transform="translate(-189.16186 -160.49521)"/><path d="m553.89965 469.44778a10.05577 10.05577 0 0 0 14.99854-3.57767l35.438 4.59612-8.14419-16.68847-32.404-1.806a10.11028 10.11028 0 0 0 -9.88836 17.476z" fill="#a0616a" transform="translate(-189.16186 -160.49521)"/><path d="m632.01123 478.5621a13.42535 13.42535 0 0 1 -1.84472-.12744l-55.751-7.73242a5.54112 5.54112 0 0 1 -4.25073-3.11133 5.65746 5.65746 0 0 1 -.31787-.8291h-.00025a5.56408 5.56408 0 0 1 .575-4.43164l4.61353-7.64893a5.58411 5.58411 0 0 1 4.75586-2.686h.00757l48.59594.05566 36.29395-32.51709a9.86788 9.86788 0 0 1 6.10718-2.49951 9.83491 9.83491 0 0 1 7.37256 16.81543l-36.21512 40.27827a13.364 13.364 0 0 1 -9.9419 4.4341z" fill="#4fd1c5" transform="translate(-189.16186 -160.49521)"/><path d="m680.2335 404.52319c2.2445-5.19457 4.14379-12.11253-.16123-15.78514-2.49712-2.13029-6.09385-2.13469-9.36546-2.39972-9.21732-.74668-18.70553-4.98771-23.21077-13.06356s-1.98923-20.08442 6.51023-23.728c5.72923-2.456 12.29743-.78291 18.29443.91767l18.0058 5.10593c5.35006 1.51712 10.96737 3.19025 14.819 7.20149 6.14268 6.39729 5.6835 17.21166.80459 24.618s-12.22635 15.13079-20.63767 17.94281z" fill="#2f2e41" transform="translate(-189.16186 -160.49521)"/><path d="m928.64656 739.50479h-738.294a1.19069 1.19069 0 1 1 0-2.38137h738.294a1.19069 1.19069 0 1 1 0 2.38137z" fill="#3f3d56" transform="translate(-189.16186 -160.49521)"/></svg>