<svg height="473.94856" viewBox="0 0 740.67538 473.94856" width="740.67538" xmlns="http://www.w3.org/2000/svg"><path d="m341.17319 342.44851a122.0417 122.0417 0 0 1 10.10051-38.51722q2.27961-5.09249 5.01812-9.96076a.7438.7438 0 0 0 -1.28353-.75026 123.72825 123.72825 0 0 0 -13.7678 37.98231q-1.03367 5.58356-1.55378 11.24593c-.08811.95214 1.39893.94613 1.48648 0z" fill="#e6e6e6" transform="translate(-229.66231 -213.02572)"/><circle cx="130.22983" cy="73.9144" fill="#e6e6e6" r="9.4144"/><path d="m342.13622 342.69855a79.17409 79.17409 0 0 1 6.55267-24.98792q1.47889-3.30372 3.25549-6.462a.48254.48254 0 0 0 -.83269-.48673 80.26843 80.26843 0 0 0 -8.93181 24.64089q-.67059 3.6223-1.008 7.29576c-.05716.6177.90755.6138.96435 0z" fill="#e6e6e6" transform="translate(-229.66231 -213.02572)"/><circle cx="124.61776" cy="93.66195" fill="#e6e6e6" r="6.10756"/><path d="m340.91907 342.122a79.17418 79.17418 0 0 1 -10.20241-23.73277q-.86592-3.51453-1.40763-7.09749a.48254.48254 0 0 0 -.95593.12838 80.26861 80.26861 0 0 0 8.11306 24.92246q1.6992 3.26858 3.69253 6.37255c.33485.5222 1.09311-.07423.76038-.59313z" fill="#e6e6e6" transform="translate(-229.66231 -213.02572)"/><circle cx="98.68311" cy="93.23322" fill="#e6e6e6" r="6.10756"/><path d="m322.16929 347.52572v-12a4.50508 4.50508 0 0 1 4.5-4.5h28a4.50508 4.50508 0 0 1 4.5 4.5v12a4.50508 4.50508 0 0 1 -4.5 4.5h-28a4.50508 4.50508 0 0 1 -4.5-4.5z" fill="#f2f2f2" transform="translate(-229.66231 -213.02572)"/><path d="m353.66929 271.02572h-12a4.50508 4.50508 0 0 1 -4.5-4.5v-49a4.50508 4.50508 0 0 1 4.5-4.5h12a4.50508 4.50508 0 0 1 4.5 4.5v49a4.50508 4.50508 0 0 1 -4.5 4.5z" fill="#f2f2f2" transform="translate(-229.66231 -213.02572)"/><path d="m108.00698 9.5h20v4h-20z" fill="#ccc"/><path d="m108.00698 40.5h20v4h-20z" fill="#ccc"/><path d="m383.66929 271.02572h-12a4.50508 4.50508 0 0 1 -4.5-4.5v-49a4.50508 4.50508 0 0 1 4.5-4.5h12a4.50508 4.50508 0 0 1 4.5 4.5v49a4.50508 4.50508 0 0 1 -4.5 4.5z" fill="#f2f2f2" transform="translate(-229.66231 -213.02572)"/><path d="m138.00698 9.5h20v4h-20z" fill="#ccc"/><path d="m138.00698 40.5h20v4h-20z" fill="#ccc"/><path d="m413.66929 271.02572h-12a4.50508 4.50508 0 0 1 -4.5-4.5v-49a4.50508 4.50508 0 0 1 4.5-4.5h12a4.50508 4.50508 0 0 1 4.5 4.5v49a4.50508 4.50508 0 0 1 -4.5 4.5z" fill="#f2f2f2" transform="translate(-229.66231 -213.02572)"/><path d="m168.00698 9.5h20v4h-20z" fill="#ccc"/><path d="m168.00698 40.5h20v4h-20z" fill="#ccc"/><path d="m429.66929 352.02572h-12a4.50508 4.50508 0 0 1 -4.5-4.5v-49a4.50508 4.50508 0 0 1 4.5-4.5h12a4.50508 4.50508 0 0 1 4.5 4.5v49a4.50508 4.50508 0 0 1 -4.5 4.5z" fill="#f2f2f2" transform="translate(-229.66231 -213.02572)"/><path d="m184.00698 90.5h20v4h-20z" fill="#ccc"/><path d="m184.00698 121.5h20v4h-20z" fill="#ccc"/><path d="m459.66929 352.02572h-12a4.50508 4.50508 0 0 1 -4.5-4.5v-49a4.50508 4.50508 0 0 1 4.5-4.5h12a4.50508 4.50508 0 0 1 4.5 4.5v49a4.50508 4.50508 0 0 1 -4.5 4.5z" fill="#f2f2f2" transform="translate(-229.66231 -213.02572)"/><path d="m214.00698 90.5h20v4h-20z" fill="#ccc"/><path d="m214.00698 121.5h20v4h-20z" fill="#ccc"/><path d="m489.66929 352.02572h-12a4.50508 4.50508 0 0 1 -4.5-4.5v-49a4.50508 4.50508 0 0 1 4.5-4.5h12a4.50508 4.50508 0 0 1 4.5 4.5v49a4.50508 4.50508 0 0 1 -4.5 4.5z" fill="#f2f2f2" transform="translate(-229.66231 -213.02572)"/><path d="m244.00698 90.5h20v4h-20z" fill="#ccc"/><path d="m244.00698 121.5h20v4h-20z" fill="#ccc"/><path d="m350.66929 433.02572h-12a4.50508 4.50508 0 0 1 -4.5-4.5v-49a4.50508 4.50508 0 0 1 4.5-4.5h12a4.50508 4.50508 0 0 1 4.5 4.5v49a4.50508 4.50508 0 0 1 -4.5 4.5z" fill="#f2f2f2" transform="translate(-229.66231 -213.02572)"/><path d="m105.00698 171.5h20v4h-20z" fill="#ccc"/><path d="m105.00698 202.5h20v4h-20z" fill="#ccc"/><path d="m380.66929 433.02572h-12a4.50508 4.50508 0 0 1 -4.5-4.5v-49a4.50508 4.50508 0 0 1 4.5-4.5h12a4.50508 4.50508 0 0 1 4.5 4.5v49a4.50508 4.50508 0 0 1 -4.5 4.5z" fill="#f2f2f2" transform="translate(-229.66231 -213.02572)"/><path d="m135.00698 171.5h20v4h-20z" fill="#ccc"/><path d="m135.00698 202.5h20v4h-20z" fill="#ccc"/><path d="m410.66929 433.02572h-12a4.50508 4.50508 0 0 1 -4.5-4.5v-49a4.50508 4.50508 0 0 1 4.5-4.5h12a4.50508 4.50508 0 0 1 4.5 4.5v49a4.50508 4.50508 0 0 1 -4.5 4.5z" fill="#f2f2f2" transform="translate(-229.66231 -213.02572)"/><path d="m165.00698 171.5h20v4h-20z" fill="#ccc"/><path d="m165.00698 202.5h20v4h-20z" fill="#ccc"/><path d="m443.66929 271.02572h-12a4.50508 4.50508 0 0 1 -4.5-4.5v-49a4.50508 4.50508 0 0 1 4.5-4.5h12a4.50508 4.50508 0 0 1 4.5 4.5v49a4.50508 4.50508 0 0 1 -4.5 4.5z" fill="#f2f2f2" transform="translate(-229.66231 -213.02572)"/><path d="m198.00698 9.5h20v4h-20z" fill="#ccc"/><path d="m198.00698 40.5h20v4h-20z" fill="#ccc"/><path d="m473.66929 271.02572h-12a4.50508 4.50508 0 0 1 -4.5-4.5v-49a4.50508 4.50508 0 0 1 4.5-4.5h12a4.50508 4.50508 0 0 1 4.5 4.5v49a4.50508 4.50508 0 0 1 -4.5 4.5z" fill="#f2f2f2" transform="translate(-229.66231 -213.02572)"/><path d="m228.00698 9.5h20v4h-20z" fill="#ccc"/><path d="m228.00698 40.5h20v4h-20z" fill="#ccc"/><path d="m503.66929 271.02572h-12a4.50508 4.50508 0 0 1 -4.5-4.5v-49a4.50508 4.50508 0 0 1 4.5-4.5h12a4.50508 4.50508 0 0 1 4.5 4.5v49a4.50508 4.50508 0 0 1 -4.5 4.5z" fill="#f2f2f2" transform="translate(-229.66231 -213.02572)"/><path d="m258.00698 9.5h20v4h-20z" fill="#ccc"/><path d="m258.00698 40.5h20v4h-20z" fill="#ccc"/><path d="m533.66929 271.02572h-12a4.50508 4.50508 0 0 1 -4.5-4.5v-49a4.50508 4.50508 0 0 1 4.5-4.5h12a4.50508 4.50508 0 0 1 4.5 4.5v49a4.50508 4.50508 0 0 1 -4.5 4.5z" fill="#f2f2f2" transform="translate(-229.66231 -213.02572)"/><path d="m288.00698 9.5h20v4h-20z" fill="#ccc"/><path d="m288.00698 40.5h20v4h-20z" fill="#ccc"/><path d="m578.61024 272.52572h-285a1 1 0 0 1 0-2h285a1 1 0 0 1 0 2z" fill="#ccc" transform="translate(-229.66231 -213.02572)"/><path d="m578.61024 353.52572h-285a1 1 0 0 1 0-2h285a1 1 0 0 1 0 2z" fill="#ccc" transform="translate(-229.66231 -213.02572)"/><path d="m578.61024 434.52572h-285a1 1 0 0 1 0-2h285a1 1 0 0 1 0 2z" fill="#ccc" transform="translate(-229.66231 -213.02572)"/><path d="m561.73228 591.508c0-7.732-29.10156-14-65-14s-65 6.268-65 14c0 4.95545 11.96436 9.30622 30 11.79432v76.70568a6.5 6.5 0 0 0 13 0v-75.324c6.87207.53241 14.27686.824 22 .824s15.12793-.29162 22-.824v75.324a6.5 6.5 0 0 0 13 0v-76.70568c18.03565-2.4881 30-6.83887 30-11.79432z" fill="#ccc" transform="translate(-229.66231 -213.02572)"/><path d="m319.563 460.906h12.26l5.832-47.288h-18.094z" fill="#a0616a"/><path d="m546.59844 670.42825h38.53073a0 0 0 0 1 0 0v14.88687a0 0 0 0 1 0 0h-23.64387a14.88686 14.88686 0 0 1 -14.88686-14.88686 0 0 0 0 1 0-.00001z" fill="#2f2e41" transform="matrix(-1 .00004573 -.00004573 -1 902.09624 1142.69183)"/><path d="m338.701 454.064 11.697-3.671-8.592-46.865-17.264 5.417z" fill="#a0616a"/><path d="m566.15243 658.42388h38.53073a0 0 0 0 1 0 0v14.88687a0 0 0 0 1 0 0h-23.64388a14.88686 14.88686 0 0 1 -14.88686-14.88686 0 0 0 0 1 .00001-.00001z" fill="#2f2e41" transform="matrix(-.95412219 .2994175 -.2994175 -.95412219 1113.68794 912.87602)"/><g transform="translate(-229.66231 -213.02572)"><path d="m560.16112 645.32445-22.42725-58.87109c-5.03149 1.18164-47.22656 10.51855-61.35889-4.52832-4.84326-5.15723-5.78784-12.62891-2.80761-22.208l8.24756-10.36426.25634.01367c3.11841.16406 76.43531 4.27344 81.46119 26.38867 4.23754 18.64454 11.97656 53.40528 14.24731 63.61524a4.51573 4.51573 0 0 1 -2.814 5.18359l-9.01928 3.38184a4.46228 4.46228 0 0 1 -1.572.28613 4.51293 4.51293 0 0 1 -4.21337-2.89747z" fill="#2f2e41"/><path d="m547.16112 652.32445-22.42725-58.87109c-5.03174 1.18164-47.22656 10.51757-61.35889-4.52832-4.84326-5.15723-5.78784-12.62891-2.80761-22.208l8.24756-10.36426.25634.01367c3.11841.16406 76.43531 4.27344 81.46119 26.38867 4.23754 18.64454 11.97656 53.40528 14.24731 63.61524a4.51573 4.51573 0 0 1 -2.814 5.18359l-9.01928 3.38184a4.46228 4.46228 0 0 1 -1.572.28613 4.51293 4.51293 0 0 1 -4.21337-2.89747z" fill="#2f2e41"/><path d="m577.46925 511.20192a10.52657 10.52657 0 0 0 -.88488 1.40152l-49.32026 5.19623-7.09959-9.734-16.09071 8.79449 13.94447 23.62125 60.48739-15.42252a10.49579 10.49579 0 1 0 -1.03642-13.857z" fill="#a0616a"/><path d="m460.25023 569.82543a4.50694 4.50694 0 0 1 -1.81861-4.34864c2.78248-18.34277-.41894-44.61914-3.59472-63.43261a24.79543 24.79543 0 0 1 27.55932-28.76172 79.86459 79.86459 0 0 1 9.91285 1.9541 24.59626 24.59626 0 0 1 18.582 24.46777c-.47486 18.1543 3.21142 40.80567 4.81836 49.70117a4.51862 4.51862 0 0 1 -.83374 3.51075 4.39229 4.39229 0 0 1 -3.09546 1.75c-17.80811 1.81738-37.01221 10.50195-46.87451 15.5166a4.50062 4.50062 0 0 1 -2.04956.501 4.42884 4.42884 0 0 1 -2.60593-.85842z" fill="#4fd1c5"/><path d="m508.321 522.5139a4.47083 4.47083 0 0 1 -2.47363-2.39746l-9.9314-22.94238a11.49973 11.49973 0 1 1 21.10718-9.13574l9.93164 22.94238a4.5057 4.5057 0 0 1 -2.342 5.917l-12.8479 5.56153a4.46857 4.46857 0 0 1 -3.44385.05468z" fill="#4fd1c5"/><path d="m530.46925 509.20192a10.52657 10.52657 0 0 0 -.88488 1.40152l-49.32026 5.19623-7.09959-9.734-16.09071 8.79449 13.94447 23.62125 60.48739-15.42252a10.49579 10.49579 0 1 0 -1.03642-13.857z" fill="#a0616a"/><path d="m461.321 523.5139a4.47083 4.47083 0 0 1 -2.47363-2.39746l-9.9314-22.94238a11.49973 11.49973 0 1 1 21.10718-9.13574l9.93164 22.94238a4.5057 4.5057 0 0 1 -2.342 5.917l-12.8479 5.56153a4.46857 4.46857 0 0 1 -3.44385.05468z" fill="#4fd1c5"/></g><circle cx="250.90622" cy="227.89093" fill="#a0616a" r="24.56103"/><path d="m463.008 457.77336a2.13481 2.13481 0 0 1 1.85636-2.81906 4.93049 4.93049 0 0 1 3.4761 1.715 13.83414 13.83414 0 0 0 3.07115 2.63711c1.18812.59889 2.79953.51354 3.47686-.62825.636-1.0722.20022-2.508-.18483-3.75346a36.90711 36.90711 0 0 1 -1.62991-9.77c-.11092-3.70031.41115-7.562 2.45972-10.44806 2.64387-3.72476 7.37142-5.13883 11.84544-5.03631s8.87547 1.48363 13.30714 2.35666c1.52991.30139 3.32825.45549 4.35152-.73025 1.08805-1.26082.68844-3.3014.22563-5.00376-1.20094-4.41743-2.475-8.98461-5.26525-12.55225a18.89838 18.89838 0 0 0 -12.06081-6.79013 28.93848 28.93848 0 0 0 -13.46236 1.52838 36.09622 36.09622 0 0 0 -17.68285 12.3186 29.23591 29.23591 0 0 0 -5.57809 21.60019 26.66717 26.66717 0 0 0 9.88579 16.85462z" fill="#2f2e41" transform="translate(-229.66231 -213.02572)"/><path d="m369.22831 516.90206a122.0417 122.0417 0 0 1 10.10051-38.51722q2.27961-5.09249 5.01812-9.96076a.7438.7438 0 0 0 -1.28353-.75026 123.72825 123.72825 0 0 0 -13.7678 37.98231q-1.03368 5.58355-1.55378 11.24593c-.08812.95214 1.39892.94613 1.48648 0z" fill="#3f3d56" transform="translate(-229.66231 -213.02572)"/><circle cx="158.28495" cy="248.36795" fill="#4fd1c5" r="9.4144"/><path d="m370.19134 517.1521a79.17409 79.17409 0 0 1 6.55267-24.98792q1.47889-3.30372 3.25549-6.462a.48254.48254 0 0 0 -.83269-.48673 80.26817 80.26817 0 0 0 -8.93181 24.64089q-.67059 3.62231-1.008 7.29576c-.05716.6177.90755.6138.96435 0z" fill="#3f3d56" transform="translate(-229.66231 -213.02572)"/><circle cx="152.67288" cy="268.1155" fill="#4fd1c5" r="6.10756"/><path d="m368.97418 516.57556a79.17415 79.17415 0 0 1 -10.2024-23.73277q-.86592-3.51453-1.40763-7.09749a.48254.48254 0 0 0 -.95593.12838 80.26861 80.26861 0 0 0 8.11306 24.92246q1.69919 3.26857 3.69253 6.37255c.33485.5222 1.09311-.07423.76037-.59313z" fill="#3f3d56" transform="translate(-229.66231 -213.02572)"/><circle cx="126.73823" cy="267.68677" fill="#4fd1c5" r="6.10756"/><path d="m350.22441 521.97927v-12a4.50508 4.50508 0 0 1 4.5-4.5h28a4.50508 4.50508 0 0 1 4.5 4.5v12a4.50508 4.50508 0 0 1 -4.5 4.5h-28a4.50508 4.50508 0 0 1 -4.5-4.5z" fill="#ccc" transform="translate(-229.66231 -213.02572)"/><rect fill="#ccc" height="7" rx="3.5" width="86" x="289.06998" y="305.48228"/><path d="m654.23228 525.508h-89a6.50736 6.50736 0 0 1 -6.5-6.5v-49a6.50737 6.50737 0 0 1 6.5-6.5h89a6.50737 6.50737 0 0 1 6.5 6.5v49a6.50736 6.50736 0 0 1 -6.5 6.5z" fill="#ccc" transform="translate(-229.66231 -213.02572)"/><circle cx="380.06998" cy="281.48228" fill="#fff" r="6"/><path d="m880.73228 591.508c0-7.732-29.10156-14-65-14s-65 6.268-65 14c0 4.95545 11.96436 9.30622 30 11.79432v76.70568a6.5 6.5 0 0 0 13 0v-75.324c6.87207.53241 14.27686.824 22 .824s15.12793-.29162 22-.824v75.324a6.5 6.5 0 0 0 13 0v-76.70568c18.03565-2.4881 30-6.83887 30-11.79432z" fill="#ccc" transform="translate(-229.66231 -213.02572)"/><circle cx="593.25735" cy="222.33974" fill="#2f2e41" r="28"/><path d="m523.577 461.906h-12.26l-5.832-47.288h18.094z" fill="#ffb8b8"/><path d="m502.56 458.40253h23.64387a0 0 0 0 1 0 0v14.88687a0 0 0 0 1 0 0h-38.53078a0 0 0 0 1 0 0 14.88686 14.88686 0 0 1 14.88691-14.88687z" fill="#2f2e41"/><path d="m504.439 455.064-11.697-3.671 8.592-46.865 17.264 5.417z" fill="#ffb8b8"/><path d="m712.66827 659.42388h23.64387a0 0 0 0 1 0 0v14.88687a0 0 0 0 1 0 0h-38.53073a0 0 0 0 1 0 0 14.88686 14.88686 0 0 1 14.88686-14.88687z" fill="#2f2e41" transform="matrix(.95412219 .2994175 -.2994175 .95412219 2.90601 -397.12769)"/><path d="m738.09007 649.22191a4.46224 4.46224 0 0 1 -1.572-.28613l-9.01929-3.38184a4.51573 4.51573 0 0 1 -2.814-5.18359c2.27075-10.21 10.00976-44.9707 14.24731-63.61524 5.02588-22.11523 78.34278-26.22461 81.46118-26.38867l.25635-.01367 8.24758 10.36423c2.98022 9.5791 2.03564 17.05078-2.80762 22.208-14.13232 15.04687-56.32739 5.71-61.35888 4.52832l-22.42725 58.87109a4.51293 4.51293 0 0 1 -4.21338 2.8975z" fill="#2f2e41" transform="translate(-229.66231 -213.02572)"/><path d="m751.09007 656.22191a4.46224 4.46224 0 0 1 -1.572-.28613l-9.01929-3.38184a4.51573 4.51573 0 0 1 -2.814-5.18359c2.27075-10.21 10.00976-44.9707 14.24731-63.61524 5.02588-22.11523 78.34278-26.22461 81.46118-26.38867l.25635-.01367 8.24758 10.36423c2.98022 9.5791 2.03564 17.05078-2.80762 22.208-14.13232 15.04589-56.32715 5.71-61.35888 4.52832l-22.42725 58.87109a4.51293 4.51293 0 0 1 -4.21338 2.8975z" fill="#2f2e41" transform="translate(-229.66231 -213.02572)"/><path d="m724.99531 512.20192a10.52563 10.52563 0 0 1 .88489 1.40152l49.32026 5.19623 7.09959-9.734 16.09071 8.79449-13.94447 23.62125-60.48739-15.4225a10.4958 10.4958 0 1 1 1.03641-13.857z" fill="#ffb8b8" transform="translate(-229.66231 -213.02572)"/><path d="m839.60838 571.68383a4.50062 4.50062 0 0 1 -2.04956-.501c-9.8623-5.01465-29.06641-13.69922-46.87451-15.5166a4.39229 4.39229 0 0 1 -3.09546-1.75 4.51858 4.51858 0 0 1 -.83374-3.51075c1.60693-8.8955 5.29321-31.54687 4.81836-49.70117a24.59626 24.59626 0 0 1 18.582-24.46777 79.86445 79.86445 0 0 1 9.91284-1.9541 24.79544 24.79544 0 0 1 27.55933 28.76172c-3.17578 18.81347-6.3772 45.08984-3.59473 63.43261a4.50694 4.50694 0 0 1 -1.8186 4.34864 4.42884 4.42884 0 0 1 -2.60593.85842z" fill="#4fd1c5" transform="translate(-229.66231 -213.02572)"/><path d="m792.48631 523.83226a4.49628 4.49628 0 0 1 -1.78662-.373l-12.8479-5.56153a4.50569 4.50569 0 0 1 -2.342-5.917l9.93164-22.94238a11.49973 11.49973 0 1 1 21.10718 9.13574l-9.9314 22.94238a4.51063 4.51063 0 0 1 -4.13086 2.71582z" fill="#4fd1c5" transform="translate(-229.66231 -213.02572)"/><circle cx="592.23373" cy="228.89093" fill="#ffb8b8" r="24.56103"/><path d="m796.89293 429.84957a88.59059 88.59059 0 0 0 38.32618 12.62843l-4.03992-4.84061a29.68817 29.68817 0 0 0 9.17074 1.82105c3.13021-.04875 6.40987-1.254 8.18642-3.83171a9.342 9.342 0 0 0 .62531-8.62974 17.694 17.694 0 0 0 -5.56636-6.96014 33.13951 33.13951 0 0 0 -30.84447-5.51248 19.80609 19.80609 0 0 0 -9.21238 5.90943c-2.32838 2.87238-6.81094 5.43156-5.61879 8.93167z" fill="#2f2e41" transform="translate(-229.66231 -213.02572)"/><path d="m826.02581 410.0287a75.48471 75.48471 0 0 0 -27.463-17.7592c-6.63872-2.45941-13.86459-3.97895-20.80509-2.58225s-13.50411 6.19807-15.44041 13.00778c-1.58332 5.56836.05158 11.56379 2.50871 16.80555s5.73758 10.10247 7.72463 15.53985a35.46793 35.46793 0 0 1 -35.689 47.56227c6.81938.91437 13.10515 4.119 19.77076 5.82483s14.53281 1.59011 19.48624-3.18519c5.24091-5.05244 5.34584-13.26718 5.09245-20.54249l-1.13-32.445c-.1921-5.51543-.35615-11.20763 1.63288-16.35551s6.71617-9.65569 12.23475-9.60885c4.18253.0355 7.88442 2.56926 11.23865 5.068s6.90446 5.16474 11.0706 5.53641 8.92293-2.71144 8.61118-6.88249" fill="#2f2e41" transform="translate(-229.66231 -213.02572)"/><path d="m482.197 281.087 56.553 1.335 8.193 60.456-52.227 1.172z" fill="#e6e6e6"/><path d="m771.99531 510.20192a10.52563 10.52563 0 0 1 .88489 1.40152l49.32026 5.19623 7.09959-9.734 16.09071 8.79449-13.94447 23.62125-60.48739-15.4225a10.4958 10.4958 0 1 1 1.03641-13.857z" fill="#ffb8b8" transform="translate(-229.66231 -213.02572)"/><path d="m839.48631 524.83226a4.49628 4.49628 0 0 1 -1.78662-.373l-12.8479-5.56153a4.50569 4.50569 0 0 1 -2.342-5.917l9.93164-22.94238a11.49973 11.49973 0 1 1 21.10718 9.13574l-9.9314 22.94238a4.51063 4.51063 0 0 1 -4.13086 2.71582z" fill="#4fd1c5" transform="translate(-229.66231 -213.02572)"/><path d="m723.23228 524.508h-398a6.5 6.5 0 1 0 0 13h11.5v141.5a6.5 6.5 0 0 0 13 0v-129.00994l72.8711 132.07788a6.5 6.5 0 0 0 11.2583-6.5l-76.17578-138.06794h348.04638v.08417l-76.1289 137.98377a6.49977 6.49977 0 1 0 11.25781 6.5l64.87109-117.57813v114.51019a6.5 6.5 0 0 0 13 0v-138.07263l1.89112-3.42737h2.60888a6.5 6.5 0 0 0 0-13z" fill="#3f3d56" transform="translate(-229.66231 -213.02572)"/><path d="m969.147 686.97428h-738.294a1.19069 1.19069 0 0 1 0-2.38137h738.294a1.19068 1.19068 0 0 1 0 2.38137z" fill="#3f3d56" transform="translate(-229.66231 -213.02572)"/></svg>