<svg xmlns="http://www.w3.org/2000/svg" width="20" height="20" viewBox="0 0 320 320">
    <path fill-rule="evenodd" d="M160 112c48 0 80 48 80 48s-32 48-80 48-80-48-80-48 32-48 80-48zm-60 48s28-32 60-32 60 32 60 32-28 32-60 32-60-32-60-32zm60 16c8.837 0 16-7.163 16-16s-7.163-16-16-16-16 7.163-16 16 7.163 16 16 16zM32 72v64c0 16-16 16-16 16v16s16 0 16 16v64c0 8 8 24 32 24v-16c-16 0-16-8-16-16v-48c0-8 0-32-16-32 16 0 16-24 16-32V80c0-8 0-16 16-16V48c-24 0-32 16-32 24zm256 0v64c0 16 16 16 16 16v16s-16 0-16 16v64c0 8-8 24-32 24v-16c16 0 16-8 16-16v-48c0-8 0-32 16-32-16 0-16-24-16-32V80c0-8 0-16-16-16V48c24 0 32 16 32 24z"/>
</svg>
