<svg xmlns="http://www.w3.org/2000/svg" width="20" height="20" viewBox="0 0 320 320">
    <path fill-rule="evenodd" d="M254.992 264H288v-16h-33.008c-3.552-13.802-16.08-24-30.992-24-14.91 0-27.44 10.198-30.992 24H32v16h161.008c3.552 13.802 16.08 24 30.992 24 14.91 0 27.44-10.198 30.992-24zm-128-96H288v-16H126.992c-3.552-13.802-16.08-24-30.992-24-14.91 0-27.44 10.198-30.992 24H32v16h33.008c3.552 13.802 16.08 24 30.992 24 14.91 0 27.44-10.198 30.992-24zm128-96H288V56h-33.008C251.44 42.198 238.912 32 224 32c-14.91 0-27.44 10.198-30.992 24H32v16h161.008c3.552 13.802 16.08 24 30.992 24 14.91 0 27.44-10.198 30.992-24zM208 64c0 8.837 7.163 16 16 16s16-7.163 16-16-7.163-16-16-16-16 7.163-16 16zM80 160c0 8.837 7.163 16 16 16s16-7.163 16-16-7.163-16-16-16-16 7.163-16 16zm128 96c0 8.837 7.163 16 16 16s16-7.163 16-16-7.163-16-16-16-16 7.163-16 16z"/>
</svg>
