<svg xmlns="http://www.w3.org/2000/svg" xmlns:xlink="http://www.w3.org/1999/xlink" version="1.1" width="100%" height="100%" viewBox="0 0 640 640" enable-background="new 0 0 640 640" xml:space="preserve">
    <path d="M320 400c44 0 80-36 80-80s-36-80-80-80-80 36-80 80 36 80 80 80zm0 80c88 0 160-72 160-160s-72-160-160-160-160 72-160 160 72 160 160 160zm0 40c-110 0-200-90-200-200s90-200 200-200 200 90 200 200-90 200-200 200zm0-480c11 0 20-9 20-20s-9-20-20-20-20 9-20 20 9 20 20 20zm0 600c11 0 20-9 20-20s-9-20-20-20-20 9-20 20 9 20 20 20zm78-10c11 0 20-9 20-20s-9-20-20-20-20 9-20 20 9 20 20 20zm-155-580c11 0 20-9 20-20s-9-20-20-20-20 9-20 20 9 20 20 20zM470 600c11 0 20-9 20-20s-9-20-20-20-20 9-20 20 9 20 20 20zM170 80c11 0 20-9 20-20s-9-20-20-20-20 9-20 20 9 20 20 20zm362 472c11 0 20-9 20-20s-9-20-20-20-20 9-20 20 9 20 20 20zm-425-425c11 0 20-9 20-20s-9-20-20-20-20 9-20 20 9 20 20 20zM580 490c11 0 20-9 20-20s-9-20-20-20-20 9-20 20 9 20 20 20zM60 190c11 0 20-9 20-20s-9-20-20-20-20 9-20 20 9 20 20 20zm550 228c11 0 20-9 20-20s-9-20-20-20-20 9-20 20 9 20 20 20zm-580-155c11 0 20-9 20-20s-9-20-20-20-20 9-20 20 9 20 20 20zM620 340c11 0 20-9 20-20s-9-20-20-20-20 9-20 20 9 20 20 20zm-600 0c11 0 20-9 20-20s-9-20-20-20-20 9-20 20 9 20 20 20zm590-78c11 0 20-9 20-20s-9-20-20-20-20 9-20 20 9 20 20 20zm-580 155c11 0 20-9 20-20s-9-20-20-20-20 9-20 20 9 20 20 20zM580 190c11 0 20-9 20-20s-9-20-20-20-20 9-20 20 9 20 20 20zM60 490c11 0 20-9 20-20s-9-20-20-20-20 9-20 20 9 20 20 20zm472-362c11 0 20-9 20-20s-9-20-20-20-20 9-20 20 9 20 20 20zm-425 425c11 0 20-9 20-20s-9-20-20-20-20 9-20 20 9 20 20 20zM470 80c11 0 20-9 20-20s-9-20-20-20-20 9-20 20 9 20 20 20zM170 600c11 0 20-9 20-20s-9-20-20-20-20 9-20 20 9 20 20 20zM398 50c11 0 20-9 20-20s-9-20-20-20-20 9-20 20 9 20 20 20zm-155 580c11 0 20-9 20-20s-9-20-20-20-20 9-20 20 9 20 20 20z"/>
</svg>
