<svg xmlns="http://www.w3.org/2000/svg" viewBox="0 0 174 200"><path d="M150,50,138.18,29.54,126.36,50H115.87l-5.26-9.1,11.82-20.45H98.81L87,0,75.19,20.45H51.57L63.38,40.9,58.13,50H47.63L35.82,29.54,24,50H.39L12.2,70.45.39,90.91H24L29.26,100,24,109.09H.39L12.2,129.55.39,150H24l11.81,20.46L47.63,150h10.5l5.25,9.1L51.57,179.55H75.19L87,200l11.81-20.45h23.62L110.61,159.1l5.26-9.1h10.5l11.81,20.46L150,150h23.62L161.8,129.55l11.81-20.46H150L144.74,100,150,90.91h23.62L161.8,70.45,173.61,50Zm3.94,29.54h-10.5L131.62,100l11.81,20.46h10.5l-5.25,9.09,5.25,9.09h-10.5l-5.25,9.1-5.25-9.1H109.31L97.5,159.1l5.25,9.09H92.26L87,177.29l-5.25-9.1H71.25l5.25-9.09L64.69,138.64H41.08l-5.26,9.1-5.25-9.1H20.07l5.26-9.09-5.26-9.09h10.5L42.38,100,30.57,79.54H20.07l5.26-9.09-5.26-9.09h10.5l5.25-9.1,5.26,9.1H64.69L76.5,40.9l-5.25-9.09h10.5L87,22.71l5.26,9.1h10.49L97.5,40.9l11.81,20.46h23.62l5.25-9.1,5.25,9.1h10.5l-5.25,9.09,5.25,9.09Z" fill="#C23582"/></svg>
