<svg xmlns="http://www.w3.org/2000/svg">
    <symbol id="key" viewBox="0 0 24 24">
        <path fill="none" stroke-linecap="round" stroke-linejoin="round" d="M15 7a2 2 0 012 2m4 0a6 6 0 01-7.743 5.743L11 17H9v2H7v2H4a1 1 0 01-1-1v-2.586a1 1 0 01.293-.707l5.964-5.964A6 6 0 1121 9z" />
    </symbol>
    <symbol id="user" viewBox="0 0 24 24">
        <path fill="none" stroke-linecap="round" stroke-linejoin="round" d="M5.121 17.804A13.937 13.937 0 0112 16c2.5 0 4.847.655 6.879 1.804M15 10a3 3 0 11-6 0 3 3 0 016 0zm6 2a9 9 0 11-18 0 9 9 0 0118 0z"/>
    </symbol>
    <symbol id="globe" viewBox="0 0 24 24">
        <path fill="none" stroke-linecap="round" stroke-linejoin="round" d="M3.055 11H5a2 2 0 012 2v1a2 2 0 002 2 2 2 0 012 2v2.945M8 3.935V5.5A2.5 2.5 0 0010.5 8h.5a2 2 0 012 2 2 2 0 104 0 2 2 0 012-2h1.064M15 20.488V18a2 2 0 012-2h3.064M21 12a9 9 0 11-18 0 9 9 0 0118 0z"/>
    </symbol>
    <symbol id="gift" viewBox="0 0 24 24">
        <path fill="none" stroke-linecap="round" stroke-linejoin="round" d="M12 8v13m0-13V6a2 2 0 112 2h-2zm0 0V5.5A2.5 2.5 0 109.5 8H12zm-7 4h14M5 12a2 2 0 110-4h14a2 2 0 110 4M5 12v7a2 2 0 002 2h10a2 2 0 002-2v-7"/>
    </symbol>
    <symbol id="bulb" viewBox="0 0 24 24">
        <path fill="none" stroke-linecap="round" stroke-linejoin="round" d="M9.663 17h4.673M12 3v1m6.364 1.636l-.707.707M21 12h-1M4 12H3m3.343-5.657l-.707-.707m2.828 9.9a5 5 0 117.072 0l-.548.547A3.374 3.374 0 0014 18.469V19a2 2 0 11-4 0v-.531c0-.895-.356-1.754-.988-2.386l-.548-.547z"/>
    </symbol>
    <symbol id="lightning" viewBox="0 0 24 24">
        <path fill="none" stroke-linecap="round" stroke-linejoin="round" d="M13 10V3L4 14h7v7l9-11h-7z"/>
    </symbol>
    <symbol id="chevron-right" viewBox="0 0 24 24">
        <path fill="none" stroke-linecap="round" stroke-linejoin="round" stroke-width="3" d="M9 5l7 7-7 7" />
    </symbol>
    <symbol id="twitter" viewBox="0 0 24 24">
        <path d="M8.29 20.251c7.547 0 11.675-6.253 11.675-11.675 0-.178 0-.355-.012-.53A8.348 8.348 0 0022 5.92a8.19 8.19 0 01-2.357.646 4.118 4.118 0 001.804-2.27 8.224 8.224 0 01-2.605.996 4.107 4.107 0 00-6.993 3.743 11.65 11.65 0 01-8.457-4.287 4.106 4.106 0 001.27 5.477A4.072 4.072 0 012.8 9.713v.052a4.105 4.105 0 003.292 4.022 4.095 4.095 0 01-1.853.07 4.108 4.108 0 003.834 2.85A8.233 8.233 0 012 18.407a11.616 11.616 0 006.29 1.84" />
    </symbol>
    <symbol id="github" viewBox="0 0 24 24">
        <path fill-rule="evenodd" d="M12 2C6.477 2 2 6.484 2 12.017c0 4.425 2.865 8.18 6.839 9.504.5.092.682-.217.682-.483 0-.237-.008-.868-.013-1.703-2.782.605-3.369-1.343-3.369-1.343-.454-1.158-1.11-1.466-1.11-1.466-.908-.62.069-.608.069-.608 1.003.07 1.531 1.032 1.531 1.032.892 1.53 2.341 1.088 2.91.832.092-.647.35-1.088.636-1.338-2.22-.253-4.555-1.113-4.555-4.951 0-1.093.39-1.988 1.029-2.688-.103-.253-.446-1.272.098-2.65 0 0 .84-.27 2.75 1.026A9.564 9.564 0 0112 6.844c.85.004 1.705.115 2.504.337 1.909-1.296 2.747-1.027 2.747-1.027.546 1.379.202 2.398.1 2.651.64.7 1.028 1.595 1.028 2.688 0 3.848-2.339 4.695-4.566 4.943.359.309.678.92.678 1.855 0 1.338-.012 2.419-.012 2.747 0 .268.18.58.688.482A10.019 10.019 0 0022 12.017C22 6.484 17.522 2 12 2z" clip-rule="evenodd" />
    </symbol>
    <symbol id="discord" viewBox="0 0 24 24">
        <path d="m15.42 3.66h-.05l-.37.34a13.31 13.31 0 0 1 5.09 2.54 18 18 0 0 0 -6.19-1.88 17.45 17.45 0 0 0 -4.09 0h-.3a14.66 14.66 0 0 0 -4.65 1.21c-.77.33-1.21.55-1.21.55a11.82 11.82 0 0 1 5.35-2.54l-.22-.22a9.91 9.91 0 0 0 -5.78 2.1 25.85 25.85 0 0 0 -3 11.6s1.65 2.88 6.19 3c0 0 .66-.89 1.33-1.66a6.51 6.51 0 0 1 -3.52-2.33 5.71 5.71 0 0 1 .55.33h.1a.11.11 0 0 1 .1.05.12.12 0 0 0 .1 0c.55.22 1.09.44 1.54.66a13.75 13.75 0 0 0 3 .89 17.12 17.12 0 0 0 5.31 0 16 16 0 0 0 3-.89 22.45 22.45 0 0 0 2.31-1.22 6.54 6.54 0 0 1 -3.64 2.32c.54.77 1.31 1.66 1.31 1.66a8.61 8.61 0 0 0 6.32-2.8 25.83 25.83 0 0 0 -3-11.6 9.89 9.89 0 0 0 -5.68-2.08h.09zm.27 7.34a2.22 2.22 0 1 1 -2.09 2.22 2.16 2.16 0 0 1 2.09-2.22zm-7.5 0a2.22 2.22 0 0 1 0 4.43 2.21 2.21 0 0 1 0-4.42z" />
    </symbol>
</svg>
