<svg fill="#fff" viewBox="0 0 154 54" xmlns="http://www.w3.org/2000/svg"><path d="m152.5 27.5v5.4h-2.4c-5.5 0-8.6-3.3-8.6-9.3v-6.8h-7.4v16.1h-5.6v-16.1h-3.1l-.1-4.6h3.1v-.6c0-6 3-9.3 8.6-9.3h2.4v5.4h-2.4c-2 0-2.9 1.3-2.9 4v.6h7.4v-4l5.6-3.6v7.4h4v4.6h-4v6.8c0 2.7 1 4 2.9 4zm-75.5-15.6h5.6v21h-5.6v-2c-1.7 1.7-4 2.7-6.4 2.6-5.7 0-10.1-4.8-10.1-11s4.4-11 10.1-11c2.4-.1 4.7.8 6.4 2.5zm0 10.5c0-3.5-2.4-6.1-5.6-6.1s-5.6 2.6-5.6 6.1 2.3 6.1 5.6 6.1 5.6-2.5 5.6-6.1zm12.9-8.7v-1.8h-5.4v21h5.6v-9.5c0-4.5.8-6.8 5-6.8h1.5v-5.4h-.2c-3 0-5.2.9-6.5 2.5zm8.1 19.1h5.6v-30.4h-5.6zm-81-24.7c3.2 0 6.1 1.8 7.6 4.5l.1.2.2-.1 4.8-3.1.3-.1-.1-.2c-2.9-4.3-7.7-6.9-12.8-6.9-8.5-.1-15.5 6.7-15.6 15.1v.3c-.1 8.5 6.8 15.4 15.3 15.5h.3c5.1.1 9.9-2.5 12.8-6.7l.1-.2-5.2-3.4-.1.2c-1.6 2.7-4.5 4.4-7.6 4.5-5.2 0-9.2-4.3-9.2-9.8 0-4.8 3.4-9.8 9.1-9.8zm14.6 24.7h5.6v-30.4h-5.6zm94-10.5c0 .6 0 1.1-.1 1.7v.5h-14.8c.5 2.5 2.8 4.3 5.4 4.1 2 0 3.9-.7 5.5-2l.4-.3 2.8 4-.3.3c-2.4 2-5.5 3.1-8.6 3-6.4 0-10.8-4.6-10.8-11.1s4.3-11.1 10.6-11.1c5.7-.2 9.8 4.4 9.9 10.9zm-5.7-2.2c-.6-2.5-2.2-3.9-4.5-3.9-2.4-.1-4.4 1.6-4.7 3.9zm-60.7 2.2c0 .6 0 1.1-.1 1.7v.5h-14.8c.5 2.5 2.8 4.3 5.4 4.1 2 0 3.9-.7 5.5-2l.4-.3 2.8 4-.3.3c-2.4 2-5.5 3.1-8.6 3-6.4 0-10.8-4.6-10.8-11.1s4.3-11.3 10.5-11.3c5.9 0 10 4.6 10 11.1zm-5.6-2.2c-.6-2.5-2.2-3.9-4.5-3.9-2.4-.1-4.4 1.6-4.7 3.9z"/><path d="m151.8 44c-.2-1-1.1-1.6-2-1.4h-.1c-1.1.4-2.2.4-3.3.2-1.4-.2-2.9-.3-4.3-.5-2.4-.3-4.8-.5-7.2-.7-2.6-.2-5.3-.3-7.9-.5-2.5-.2-4.9-.4-7.4-.5-5.2-.3-10.5-.5-15.7-.6-4.4-.2-19.6-.3-23.9-.3-3.1 0-6.1.1-9.2.2-4.1 0-18.9.3-23 .6-4.3.2-8.7.4-13 .7-4 .3-8 .5-11.9.7-.9 0-1.8.1-2.7.3-2.4 0-4.4.2-6.5.3-1.7.1-3.4.1-5 .4-.7 0-1-.4-2.1-.3s-2.1.5-2.1 1.1c-.5.1 0 .4-.6.5v.5c.4.2.6.4 0 .7v.2c.3-.1.4 0 .6.1v.4c-.4.2-.2.4-.1.5s.5.4.4.7c-.1.5.1 1 .5 1.3v.2c.1.7 1.1 1.3 1.2 2 .1.5 1 1 2.3.9 1.1-.1 1.5-.5 2.5-.7.2 0 .8-.1 1-.1 4.2-.3 8.5-.6 12.7-1 1.2-.1 2.6-.1 3.7-.3 1.5-.3 3.1-.3 4.6-.5 2.9-.3 5.8-.5 8.6-.5 2.4 0 4.8-.3 7.2-.4 1.3-.1 2.7.1 4-.1.5-.1 1-.1 1.6-.1 1.4.1 13.7-.1 15.1-.1 2.8 0 5.6-.1 8.4-.2 3.3-.1 17.4-.2 20.7 0 1.1 0 2.3.2 3.4.2 3.1-.2 6.2.1 9.3.2 2.7.1 5.4.3 8.1.4s5.2.2 7.8.5c1 .1 2.1.2 3.1.3.8.1 1.4-.2 2.2-.1 2 .3 4.1.5 6.2.6 1.1 0 2.2.1 3.2.3 1.6.3 3.1.5 4.7.7l1 .4c.9.4 1.8.5 2.8.3.5-.3.8-1 .6-1.6v-.2c.1-.2.2-.3.1-.5.3-.1.3-.2.2-.4.2-.6.7-1.1.4-1.7-.1-.2-.4-.6.4-.8v-.5c-.4 0-.4-.2-.5-.3-.2-.5-.1-1-.1-1.5zm-73.5 1.3h-.2z"/></svg>