<svg fill="#fff" viewBox="0 0 56.296 37.991" xmlns="http://www.w3.org/2000/svg"><path d="m131.268 22.2h-1.858c-.781 0-1.115.279-1.245 1.1-.074.465-.743 6.449-.948 8.288a4.7 4.7 0 0 0 -2.527-1.728 5.367 5.367 0 0 0 -5.575 2.527 12.49 12.49 0 0 0 -1.561 8.363 4.858 4.858 0 0 0 .242 1 3.189 3.189 0 0 1 -1.561.985c-1.412.409-2.1-.074-2.063-1.561.019-.818.39-3.94.427-4.311.5-3.642.465-3.958.279-4.906a2.606 2.606 0 0 0 -2.49-2.249 4.933 4.933 0 0 0 -3.382 1.152 15.24 15.24 0 0 0 -2.806 3.048c.056-.688.3-3.029.3-3.252 0-.595-.372-.836-.985-.836h-1.877c-.836 0-1.208.372-1.3 1.245-.037.316-.632 6.207-.873 8.79a3.288 3.288 0 0 1 -2.379 2.881c-1.412.409-2.1-.074-2.063-1.561.019-.818.966-9.088 1.1-10.314.093-.743-.3-1.022-.985-1.022h-1.884c-.836 0-1.208.372-1.3 1.245 0 0-1.022 8.028-1.059 10.147-.037 2.081.632 4.07 3.568 4.107a7.074 7.074 0 0 0 4.72-2.026c-.019.149-.019.279-.037.427-.149 1.561-.167 1.431 1.357 1.468a11.015 11.015 0 0 0 1.357 0c.966-.074 1.227-.2 1.319-1.319.149-1.635.316-3.289.576-4.906a8.574 8.574 0 0 1 2.992-5.557 1.642 1.642 0 0 1 1.542-.316c.483.223.52.929.465 1.394 0 .037-.3 1.951-.409 2.825a25.116 25.116 0 0 0 -.334 4.163l.019-.019c.019 1.988.743 3.828 3.568 3.865a7.144 7.144 0 0 0 4.794-2.081 3.648 3.648 0 0 0 .223.39c1.208 1.97 4.348 2.137 5.947.873a7.925 7.925 0 0 0 1.375-1.357c-.056.539-.093.836-.112 1.152-.019.669.316.911.911.911h2.49a.856.856 0 0 0 .911-.873c.279-2.6 2.174-19.29 2.323-20.981.037-.929-.3-1.171-1.189-1.171zm-5.092 18.547a4.41 4.41 0 0 1 -1.914 1.877 1.466 1.466 0 0 1 -2.063-1 9.71 9.71 0 0 1 -.446-4.4 7.057 7.057 0 0 1 1.3-3.457c1.041-1.264 2.9-1.561 3.884.167-.147 1.461-.519 4.694-.761 6.813z" transform="translate(-76.164 -18.218)"/><ellipse cx="21.122" cy="6.082" rx="2.174" ry="2.174"/><path d="m43.154 31.778c-.24-.222-.608-.111-1.179.5a12.82 12.82 0 0 1 -6.652 3.712 17.757 17.757 0 0 1 -16.086-4.893c-3.151-2.991-6.173-8.328-7.555-14.717a20.166 20.166 0 0 0 5.62-5.226c1.216-1.81.147-3.49-1.824-3.97a.742.742 0 0 0 -.276-.018.335.335 0 0 0 -.2.185 28.75 28.75 0 0 1 -7.742 8.27l1.511-13.794c.074-.591-.147-1-.792-1.016a23.621 23.621 0 0 0 -2.8 0 1.09 1.09 0 0 0 -1.107 1.127c-.331 3.416-2.911 26.701-3.132 28.677-.074.591.147 1 .792 1.016.94.018 1.879.055 2.8-.018a1.09 1.09 0 0 0 1.106-1.126l1.217-11.081a29.543 29.543 0 0 0 10.558 15.252 22.112 22.112 0 0 0 16.068 3.8c4.035-.757 7.665-2.807 9.453-5.392.534-.757.442-1.089.221-1.293zm-36.17-13.092-.055.037v-.023a.068.068 0 0 0 .055-.014z" transform="translate(-.926 -.77)"/></svg>