<svg fill="#fff" viewBox="0 0 1282 576" xmlns="http://www.w3.org/2000/svg"><path d="m1141.0642 221.042514c-106-4-140 99-140 99-2-43 1-71 1-71 6-4 96-39 101-160.0000001 2-66-53-104-117-83.00000001-24 110.00000011-47 260.00000011-27 417.00000011-4 12-40 100-79 100-53 0-62-109-60-180 12-26 37-88 16-113-10-13-30-15-60-9 0 7-2 54-2 54s-26-49-90-49c-92 0-152 89-152 182 0 15 1 28 2 41l1 1-1 1c-25 46-48 69-78 69-65 0-73-100-73-100 61-72 94-173 94-283 0-91.0000001-40-158.0000001-122-131.00000011-19 96.00000011-43 311.00000011-25 411.00000011-36 48-79 77-79 77s7-11 7-36c0-110-191-79-191-143 0-17 14-46 70-46 51 0 78 27 91 27 31 0 27-38 27-38-15-11-65-39-119-38-86 0-123 52-123 98 0 120 196 78 196 150 0 37-22 58-76 58-47 0-81-38-101-38-35 0-32 36-32 36 9 7 65 53 139 52 62-2 136-27 201-105v-2c13 47 42 107 110 107 64 0 101-72 101-72s32 72 105 72c51 0 91-25 125-85 16 57 48 85 97 85 60 0 94-72 100-86 11 22 50 83 130 86 135 5 172-116 174-179 2-61-33-172-141-176zm-117-163.0000001s32-7 31 30c-3 86.0000001-52 107.0000001-52 107.0000001 6-73 21-137.0000001 21-137.0000001zm-651 300.0000001c-4-160 22-297.0000001 22-297.0000001s32 1 32 85.0000001c0 124-54 212-54 212zm398-11c0 103-38 173-108 173-73 0-82-87-82-114 0-35 16-130 102-130 60 0 88 71 88 70zm456 54c-2 46-28 125-109 122-84-4-105-85-103-120 4-64 47-133 121-130 72 3 92 82 91 128z"/></svg>